<svg width="21" height="20" viewBox="0 0 21 20" fill="none" xmlns="http://www.w3.org/2000/svg">
<path opacity="0.5" d="M19.1354 1.31833C19.6784 1.86138 20.0286 2.51518 20.1858 3.27974C20.3501 4.03716 20.4323 4.90532 20.4323 5.88424V14.105C20.4323 15.0911 20.3501 15.9628 20.1858 16.7203C20.0286 17.4777 19.6784 18.1315 19.1354 18.6817C18.578 19.2319 17.9171 19.5891 17.1525 19.7535C16.388 19.9178 15.5198 20 14.548 20H6.32724C5.34832 20 4.47658 19.9178 3.71202 19.7535C2.9546 19.5891 2.3008 19.2319 1.7506 18.6817C1.19326 18.1315 0.835991 17.4777 0.678792 16.7203C0.521593 15.9628 0.442993 15.0911 0.442993 14.105V5.87353C0.442993 4.90175 0.521593 4.03716 0.678792 3.27974C0.843136 2.52233 1.20041 1.86852 1.7506 1.31833C2.3008 0.768131 2.9546 0.410861 3.71202 0.246517C4.47658 0.0821722 5.34117 0 6.3058 0H14.548C15.5198 0 16.388 0.0821722 17.1525 0.246517C17.9171 0.410861 18.578 0.768131 19.1354 1.31833ZM18.3315 5.59486C18.3315 5.03751 18.2815 4.51947 18.1815 4.04073C18.0886 3.55484 17.8885 3.16184 17.5813 2.86174C17.2883 2.56163 16.8953 2.36156 16.4023 2.26152C15.9164 2.16149 15.3983 2.11147 14.8481 2.11147H6.05928C5.4948 2.11147 4.96604 2.16149 4.473 2.26152C3.97997 2.36156 3.5834 2.55806 3.28329 2.85102C2.99033 3.15827 2.79383 3.55484 2.6938 4.04073C2.60091 4.52662 2.55446 5.0518 2.55446 5.61629V14.4051C2.55446 14.9625 2.60091 15.4841 2.6938 15.97C2.79383 16.4487 2.99033 16.8382 3.28329 17.1383C3.5834 17.4312 3.9764 17.6313 4.46229 17.7385C4.95532 17.8385 5.48051 17.8885 6.03785 17.8885H14.8481C15.3983 17.8885 15.9164 17.8385 16.4023 17.7385C16.8953 17.6384 17.2883 17.4384 17.5813 17.1383C17.8814 16.8382 18.0814 16.4487 18.1815 15.97C18.2815 15.4841 18.3315 14.9625 18.3315 14.4051V5.59486Z" fill="white"/>
<path d="M6.18469 9.33594C6.01542 9.50521 5.93079 9.72656 5.93079 10C5.93079 10.2604 6.01542 10.4753 6.18469 10.6445C6.36047 10.8138 6.58508 10.8984 6.85852 10.8984H9.5343V13.584C9.5343 13.8509 9.61894 14.0723 9.78821 14.248C9.95748 14.4173 10.1723 14.502 10.4327 14.502C10.7062 14.502 10.9275 14.4173 11.0968 14.248C11.2726 14.0723 11.3605 13.8509 11.3605 13.584V10.8984H14.0363C14.3097 10.8984 14.531 10.8138 14.7003 10.6445C14.8696 10.4753 14.9542 10.2604 14.9542 10C14.9542 9.72656 14.8696 9.50521 14.7003 9.33594C14.531 9.16016 14.3097 9.07227 14.0363 9.07227H11.3605V6.39648C11.3605 6.12305 11.2726 5.90169 11.0968 5.73242C10.9275 5.56315 10.7062 5.47852 10.4327 5.47852C10.1723 5.47852 9.95748 5.56641 9.78821 5.74219C9.61894 5.91146 9.5343 6.12956 9.5343 6.39648V9.07227H6.85852C6.57857 9.07227 6.35396 9.16016 6.18469 9.33594Z" fill="white"/>
</svg>
