<svg width="13" height="14" viewBox="0 0 13 14" fill="none" xmlns="http://www.w3.org/2000/svg">
<path d="M6.44727 13.168C5.56445 13.168 4.73633 13.002 3.96289 12.6699C3.18945 12.3379 2.50977 11.8789 1.92383 11.293C1.33789 10.707 0.878906 10.0273 0.546875 9.25391C0.214844 8.48047 0.0488281 7.65234 0.0488281 6.76953C0.0488281 5.88672 0.214844 5.05859 0.546875 4.28516C0.878906 3.51172 1.33789 2.83203 1.92383 2.24609C2.50977 1.65625 3.18945 1.19727 3.96289 0.869141C4.73633 0.537109 5.56445 0.371094 6.44727 0.371094C7.33398 0.371094 8.16406 0.537109 8.9375 0.869141C9.71094 1.19727 10.3906 1.65625 10.9766 2.24609C11.5625 2.83203 12.0215 3.51172 12.3535 4.28516C12.6855 5.05859 12.8516 5.88672 12.8516 6.76953C12.8516 7.65234 12.6855 8.48047 12.3535 9.25391C12.0215 10.0273 11.5625 10.707 10.9766 11.293C10.3906 11.8789 9.71094 12.3379 8.9375 12.6699C8.16406 13.002 7.33398 13.168 6.44727 13.168ZM3.56445 6.76953C3.56445 7.01562 3.64453 7.22266 3.80469 7.39062C3.96875 7.55859 4.17188 7.64258 4.41406 7.64258H5.57422V8.80859C5.57422 9.04688 5.6582 9.24805 5.82617 9.41211C5.99414 9.57227 6.20117 9.65234 6.44727 9.65234C6.69727 9.65234 6.9043 9.57227 7.06836 9.41211C7.23633 9.24805 7.32031 9.04688 7.32031 8.80859V7.64258H8.48633C8.72852 7.64258 8.92969 7.55859 9.08984 7.39062C9.25391 7.22266 9.33594 7.01562 9.33594 6.76953C9.33594 6.51953 9.25391 6.3125 9.08984 6.14844C8.92969 5.98047 8.72852 5.89648 8.48633 5.89648H7.32031V4.73047C7.32031 4.48828 7.23633 4.28711 7.06836 4.12695C6.9043 3.96289 6.69727 3.88086 6.44727 3.88086C6.20117 3.88086 5.99414 3.96289 5.82617 4.12695C5.6582 4.28711 5.57422 4.48828 5.57422 4.73047V5.89648H4.41406C4.17188 5.89648 3.96875 5.98047 3.80469 6.14844C3.64453 6.3125 3.56445 6.51953 3.56445 6.76953Z" fill="white"/>
</svg>
