<svg width="91" height="114" viewBox="0 0 91 114" fill="none" xmlns="http://www.w3.org/2000/svg">
<path opacity="0.05" d="M22.0684 50.4209C23.9824 50.4209 25.1787 49.3784 25.6572 47.2935L26.7339 43.8584H35.3472L36.5776 47.2935C36.8511 48.3872 37.2612 49.1904 37.8081 49.7031C38.355 50.1816 39.0898 50.4209 40.0127 50.4209C41.0381 50.4209 41.8242 50.1304 42.3711 49.5493C42.9521 48.9341 43.2427 48.1479 43.2427 47.1909C43.2427 46.9175 43.2085 46.5928 43.1401 46.2168C43.106 45.8066 43.0034 45.3965 42.8325 44.9863L36.4751 26.5806C35.4839 23.7437 33.6553 22.3252 30.9893 22.3252C28.46 22.3252 26.6997 23.7437 25.7085 26.5806L19.2998 44.9863C19.0264 45.8066 18.8896 46.5415 18.8896 47.1909C18.8896 48.1821 19.1802 48.9683 19.7612 49.5493C20.3765 50.1304 21.1455 50.4209 22.0684 50.4209ZM28.0156 38.6802L30.938 28.8877H31.2456L34.1167 38.6802H28.0156ZM53.9067 31.7588H69.5439C70.6035 31.7588 71.4751 31.3999 72.1587 30.6821C72.8765 29.9644 73.2354 29.0928 73.2354 28.0674C73.2354 27.042 72.8765 26.1875 72.1587 25.5039C71.4751 24.7861 70.6035 24.4272 69.5439 24.4272H53.9067C52.813 24.4272 51.9072 24.7861 51.1895 25.5039C50.5059 26.1875 50.1641 27.042 50.1641 28.0674C50.1641 29.0928 50.5059 29.9644 51.1895 30.6821C51.9072 31.3999 52.813 31.7588 53.9067 31.7588ZM53.9067 48.729H69.5439C70.6035 48.729 71.4751 48.3701 72.1587 47.6523C72.8765 46.9346 73.2354 46.0459 73.2354 44.9863C73.2354 43.9609 72.8765 43.1064 72.1587 42.4229C71.4751 41.7393 70.6035 41.3975 69.5439 41.3975H53.9067C52.813 41.3975 51.9072 41.7393 51.1895 42.4229C50.5059 43.1064 50.1641 43.9609 50.1641 44.9863C50.1641 46.0459 50.5059 46.9346 51.1895 47.6523C51.9072 48.3701 52.813 48.729 53.9067 48.729ZM17.813 90.6675H23.9141L30.3228 84.0537C31.1772 83.2334 32.1514 82.8232 33.2451 82.8232C34.3389 82.8232 35.3472 83.2334 36.27 84.0537L40.3716 87.7964L50.6255 78.6704C51.1724 78.1577 51.7363 77.7988 52.3174 77.5938C52.9326 77.3887 53.5137 77.2861 54.0605 77.2861C54.71 77.2861 55.3252 77.3887 55.9062 77.5938C56.4873 77.7988 57 78.1577 57.4443 78.6704L67.2368 90.0522H73.2866V66.8271C73.2866 62.3496 71.0479 60.1108 66.5703 60.1108H24.6318C22.5127 60.1108 20.8379 60.6748 19.6074 61.8027C18.4111 62.9307 17.813 64.6055 17.813 66.8271V90.6675ZM36.6802 78.7217C35.2104 78.7217 33.9287 78.1919 32.835 77.1323C31.7754 76.0386 31.2456 74.7568 31.2456 73.2871C31.2456 71.8174 31.7754 70.5527 32.835 69.4932C33.9287 68.3994 35.2104 67.8867 36.6802 67.9551C38.1499 67.9893 39.4146 68.519 40.4741 69.5444C41.5337 70.5698 42.0635 71.8174 42.0635 73.2871C42.0635 74.7568 41.5337 76.0386 40.4741 77.1323C39.4146 78.1919 38.1499 78.7217 36.6802 78.7217ZM0.0737305 95.333V18.6851C0.0737305 12.8403 1.61182 8.36279 4.68799 5.25244C7.79834 2.14209 12.2588 0.586914 18.0693 0.586914H72.979C78.8237 0.586914 83.2842 2.14209 86.3604 5.25244C89.4365 8.36279 90.9746 12.8403 90.9746 18.6851V95.333C90.9746 101.178 89.4365 105.655 86.3604 108.766C83.2842 111.876 78.8237 113.431 72.979 113.431H18.0693C12.2588 113.431 7.79834 111.876 4.68799 108.766C1.61182 105.655 0.0737305 101.178 0.0737305 95.333Z" fill="url(#paint0_linear_26_34946)"/>
<defs>
<linearGradient id="paint0_linear_26_34946" x1="46" y1="-6" x2="46" y2="119" gradientUnits="userSpaceOnUse">
<stop stop-color="white"/>
<stop offset="1" stop-color="white" stop-opacity="0.5"/>
</linearGradient>
</defs>
</svg>
