<svg width="48" height="48" viewBox="0 0 48 48" fill="none" xmlns="http://www.w3.org/2000/svg">
<rect width="48" height="48" rx="24" fill="white" fill-opacity="0.1"/>
<path opacity="0.9" d="M31.7392 22.4234C32.0927 22.4234 32.3935 22.2994 32.6415 22.0513C32.8958 21.8032 33.0229 21.5025 33.0229 21.149C33.0229 20.7955 32.8958 20.4948 32.6415 20.2467C32.3873 19.9924 32.0865 19.8653 31.7392 19.8653C31.3858 19.8653 31.0819 19.9924 30.8276 20.2467C30.5734 20.4948 30.4463 20.7955 30.4463 21.149C30.4463 21.5025 30.5703 21.8063 30.8183 22.0606C31.0726 22.3087 31.3796 22.4296 31.7392 22.4234ZM15.656 33.1765C14.5956 33.1765 13.7832 32.8944 13.2189 32.3301C12.6545 31.7719 12.3724 30.9658 12.3724 29.9115V20.1165C12.3724 19.0622 12.6545 18.2561 13.2189 17.6979C13.7832 17.1336 14.5956 16.8515 15.656 16.8515H17.8141C18.18 16.8515 18.4559 16.8142 18.642 16.7398C18.8342 16.6654 19.0512 16.5104 19.2931 16.2747L20.0187 15.5492C20.2791 15.2949 20.5551 15.112 20.8465 15.0003C21.138 14.8825 21.5132 14.8236 21.9721 14.8236H25.9906C26.4557 14.8236 26.834 14.8825 27.1254 15.0003C27.4169 15.112 27.6898 15.2949 27.944 15.5492L28.6696 16.2747C28.837 16.436 28.9858 16.56 29.1161 16.6468C29.2463 16.7274 29.3889 16.7832 29.544 16.8142C29.7052 16.8391 29.9067 16.8515 30.1486 16.8515H32.3346C33.395 16.8515 34.2074 17.1336 34.7717 17.6979C35.3422 18.2561 35.6275 19.0622 35.6275 20.1165V29.9115C35.6275 30.9658 35.3422 31.7719 34.7717 32.3301C34.2074 32.8944 33.395 33.1765 32.3346 33.1765H15.656ZM23.9999 29.9859C24.6821 29.9859 25.3208 29.8588 25.9162 29.6046C26.5115 29.3503 27.0355 28.9999 27.4882 28.5534C27.9409 28.1007 28.2944 27.5767 28.5486 26.9814C28.8029 26.3799 28.93 25.7349 28.93 25.0466C28.93 24.1288 28.7099 23.2978 28.2696 22.5536C27.8293 21.8032 27.2339 21.2079 26.4836 20.7676C25.7394 20.3273 24.9115 20.1072 23.9999 20.1072C23.3178 20.1072 22.6759 20.2343 22.0744 20.4886C21.4791 20.7428 20.9551 21.0963 20.5024 21.549C20.0559 22.0017 19.7055 22.5257 19.4512 23.121C19.197 23.7164 19.0699 24.3582 19.0699 25.0466C19.0699 25.7349 19.197 26.3799 19.4512 26.9814C19.7055 27.5767 20.0559 28.1007 20.5024 28.5534C20.9551 28.9999 21.4791 29.3503 22.0744 29.6046C22.6759 29.8588 23.3178 29.9859 23.9999 29.9859ZM23.9999 27.8837C23.479 27.8837 23.0046 27.7566 22.5767 27.5023C22.1488 27.248 21.8047 26.907 21.5442 26.4791C21.2899 26.0512 21.1628 25.5737 21.1628 25.0466C21.1628 24.5194 21.2899 24.0419 21.5442 23.614C21.8047 23.1862 22.1488 22.8451 22.5767 22.5908C23.0046 22.3366 23.479 22.2094 23.9999 22.2094C24.5209 22.2094 24.9953 22.3366 25.4232 22.5908C25.851 22.8451 26.1921 23.1862 26.4464 23.614C26.7006 24.0419 26.8278 24.5194 26.8278 25.0466C26.8278 25.5737 26.7006 26.0512 26.4464 26.4791C26.1921 26.907 25.851 27.248 25.4232 27.5023C24.9953 27.7566 24.5209 27.8837 23.9999 27.8837Z" fill="white"/>
</svg>
