<svg width="12" height="11" viewBox="0 0 12 11" fill="none" xmlns="http://www.w3.org/2000/svg">
<path d="M3.93555 6.33887H6.12305C6.27604 6.33887 6.40462 6.28678 6.50879 6.18262C6.61296 6.0752 6.66504 5.94661 6.66504 5.79688V2.89648C6.66504 2.74349 6.61296 2.61491 6.50879 2.51074C6.40462 2.40658 6.27604 2.35449 6.12305 2.35449C5.97005 2.35449 5.84147 2.40658 5.7373 2.51074C5.63314 2.61491 5.58105 2.74349 5.58105 2.89648V5.25H3.93555C3.78255 5.25 3.65234 5.30371 3.54492 5.41113C3.44076 5.5153 3.38867 5.64388 3.38867 5.79688C3.38867 5.94661 3.44076 6.0752 3.54492 6.18262C3.65234 6.28678 3.78255 6.33887 3.93555 6.33887ZM6.12305 10.7236C5.40039 10.7236 4.72168 10.5869 4.08691 10.3135C3.45215 10.0433 2.89388 9.66732 2.41211 9.18555C1.93034 8.70378 1.55273 8.14551 1.2793 7.51074C1.00911 6.87598 0.874023 6.19727 0.874023 5.47461C0.874023 4.75195 1.00911 4.07324 1.2793 3.43848C1.55273 2.80371 1.93034 2.24544 2.41211 1.76367C2.89388 1.27865 3.45215 0.901042 4.08691 0.630859C4.72168 0.360677 5.40039 0.225586 6.12305 0.225586C6.84896 0.225586 7.5293 0.360677 8.16406 0.630859C8.79883 0.901042 9.3571 1.27865 9.83887 1.76367C10.3206 2.24544 10.6966 2.80371 10.9668 3.43848C11.2402 4.07324 11.377 4.75195 11.377 5.47461C11.377 6.19727 11.2402 6.87598 10.9668 7.51074C10.6966 8.14551 10.3206 8.70378 9.83887 9.18555C9.3571 9.66732 8.79883 10.0433 8.16406 10.3135C7.5293 10.5869 6.84896 10.7236 6.12305 10.7236Z" fill="white"/>
</svg>
