<svg width="14" height="14" viewBox="0 0 14 14" fill="none" xmlns="http://www.w3.org/2000/svg">
<path d="M6.84766 13.0684C5.98047 13.0684 5.16602 12.9043 4.4043 12.5762C3.64258 12.252 2.97266 11.8008 2.39453 11.2227C1.81641 10.6445 1.36328 9.97461 1.03516 9.21289C0.710938 8.45117 0.548828 7.63672 0.548828 6.76953C0.548828 5.90234 0.710938 5.08789 1.03516 4.32617C1.36328 3.56445 1.81641 2.89453 2.39453 2.31641C2.97266 1.73438 3.64258 1.28125 4.4043 0.957031C5.16602 0.632813 5.98047 0.470703 6.84766 0.470703C7.71875 0.470703 8.53516 0.632813 9.29688 0.957031C10.0586 1.28125 10.7285 1.73438 11.3066 2.31641C11.8848 2.89453 12.3359 3.56445 12.6602 4.32617C12.9883 5.08789 13.1523 5.90234 13.1523 6.76953C13.1523 7.63672 12.9883 8.45117 12.6602 9.21289C12.3359 9.97461 11.8848 10.6445 11.3066 11.2227C10.7285 11.8008 10.0586 12.252 9.29688 12.5762C8.53516 12.9043 7.71875 13.0684 6.84766 13.0684ZM6.20898 9.75195C6.34961 9.75195 6.48047 9.71875 6.60156 9.65234C6.72656 9.58203 6.83203 9.48633 6.91797 9.36523L9.625 5.29883C9.67969 5.2168 9.7207 5.13281 9.74805 5.04688C9.7793 4.96094 9.79492 4.87891 9.79492 4.80078C9.79492 4.59766 9.7168 4.42969 9.56055 4.29688C9.4082 4.16016 9.23047 4.0918 9.02734 4.0918C8.76953 4.0918 8.54883 4.23438 8.36523 4.51953L6.20312 7.94141L5.27148 6.83398C5.18555 6.73633 5.0957 6.66406 5.00195 6.61719C4.91211 6.56641 4.80859 6.54102 4.69141 6.54102C4.48828 6.54102 4.3125 6.61328 4.16406 6.75781C4.01562 6.90234 3.94141 7.07812 3.94141 7.28516C3.94141 7.38281 3.95703 7.47461 3.98828 7.56055C4.02344 7.64258 4.08008 7.73047 4.1582 7.82422L5.48242 9.37695C5.58398 9.49805 5.69336 9.5918 5.81055 9.6582C5.92773 9.7207 6.06055 9.75195 6.20898 9.75195Z" fill="url(#paint0_linear_320_1663)"/>
<defs>
<linearGradient id="paint0_linear_320_1663" x1="7" y1="2.8" x2="7" y2="10.5" gradientUnits="userSpaceOnUse">
<stop stop-color="white"/>
<stop offset="1" stop-color="white" stop-opacity="0.8"/>
</linearGradient>
</defs>
</svg>
