<svg width="21" height="21" viewBox="0 0 21 21" fill="none" xmlns="http://www.w3.org/2000/svg">
<path d="M3.96384 18.3719C3.01462 18.3719 2.29684 18.1288 1.81052 17.6425C1.32419 17.162 1.08102 16.453 1.08102 15.5155V4.81921C1.08102 3.87585 1.32419 3.16394 1.81052 2.68347C2.29684 2.203 3.01462 1.96277 3.96384 1.96277H16.0576C17.0127 1.96277 17.7304 2.203 18.2109 2.68347C18.6972 3.16394 18.9404 3.87585 18.9404 4.81921V15.5155C18.9404 16.453 18.6972 17.162 18.2109 17.6425C17.7304 18.1288 17.0127 18.3719 16.0576 18.3719H3.96384ZM3.94626 16.6405H16.0664C16.4355 16.6405 16.7168 16.5468 16.9101 16.3593C17.1093 16.1659 17.209 15.8788 17.209 15.4979V7.37683C17.209 6.99597 17.1093 6.70886 16.9101 6.5155C16.7168 6.32214 16.4355 6.22546 16.0664 6.22546H3.94626C3.57712 6.22546 3.29587 6.32214 3.10251 6.5155C2.90915 6.70886 2.81247 6.99597 2.81247 7.37683V15.4979C2.81247 15.8788 2.90915 16.1659 3.10251 16.3593C3.29587 16.5468 3.57712 16.6405 3.94626 16.6405ZM8.32321 9.28406C8.16501 9.28406 8.05368 9.25476 7.98923 9.19617C7.93063 9.13171 7.90134 9.02332 7.90134 8.87097V8.35242C7.90134 8.19421 7.93063 8.08875 7.98923 8.03601C8.05368 7.97742 8.16501 7.94812 8.32321 7.94812H8.84177C8.99411 7.94812 9.10251 7.97742 9.16696 8.03601C9.23141 8.08875 9.26364 8.19421 9.26364 8.35242V8.87097C9.26364 9.02332 9.23141 9.13171 9.16696 9.19617C9.10251 9.25476 8.99411 9.28406 8.84177 9.28406H8.32321ZM11.1884 9.28406C11.0361 9.28406 10.9277 9.25476 10.8633 9.19617C10.8047 9.13171 10.7754 9.02332 10.7754 8.87097V8.35242C10.7754 8.19421 10.8047 8.08875 10.8633 8.03601C10.9277 7.97742 11.0361 7.94812 11.1884 7.94812H11.707C11.8711 7.94812 11.9824 7.97742 12.041 8.03601C12.0996 8.08875 12.1289 8.19421 12.1289 8.35242V8.87097C12.1289 9.02332 12.0996 9.13171 12.041 9.19617C11.9824 9.25476 11.8711 9.28406 11.707 9.28406H11.1884ZM14.0713 9.28406C13.9131 9.28406 13.8017 9.25476 13.7373 9.19617C13.6787 9.13171 13.6494 9.02332 13.6494 8.87097V8.35242C13.6494 8.19421 13.6787 8.08875 13.7373 8.03601C13.8017 7.97742 13.9131 7.94812 14.0713 7.94812H14.581C14.7451 7.94812 14.8564 7.97742 14.915 8.03601C14.9736 8.08875 15.0029 8.19421 15.0029 8.35242V8.87097C15.0029 9.02332 14.9736 9.13171 14.915 9.19617C14.8564 9.25476 14.7451 9.28406 14.581 9.28406H14.0713ZM5.44919 12.1053C5.29099 12.1053 5.17966 12.076 5.1152 12.0175C5.05661 11.9589 5.02731 11.8534 5.02731 11.701V11.1825C5.02731 11.0243 5.05661 10.9159 5.1152 10.8573C5.17966 10.7987 5.29099 10.7694 5.44919 10.7694H5.96774C6.12009 10.7694 6.22556 10.7987 6.28415 10.8573C6.3486 10.9159 6.38083 11.0243 6.38083 11.1825V11.701C6.38083 11.8534 6.3486 11.9589 6.28415 12.0175C6.22556 12.076 6.12009 12.1053 5.96774 12.1053H5.44919ZM8.32321 12.1053C8.16501 12.1053 8.05368 12.076 7.98923 12.0175C7.93063 11.9589 7.90134 11.8534 7.90134 11.701V11.1825C7.90134 11.0243 7.93063 10.9159 7.98923 10.8573C8.05368 10.7987 8.16501 10.7694 8.32321 10.7694H8.84177C8.99411 10.7694 9.10251 10.7987 9.16696 10.8573C9.23141 10.9159 9.26364 11.0243 9.26364 11.1825V11.701C9.26364 11.8534 9.23141 11.9589 9.16696 12.0175C9.10251 12.076 8.99411 12.1053 8.84177 12.1053H8.32321ZM11.1884 12.1053C11.0361 12.1053 10.9277 12.076 10.8633 12.0175C10.8047 11.9589 10.7754 11.8534 10.7754 11.701V11.1825C10.7754 11.0243 10.8047 10.9159 10.8633 10.8573C10.9277 10.7987 11.0361 10.7694 11.1884 10.7694H11.707C11.8711 10.7694 11.9824 10.7987 12.041 10.8573C12.0996 10.9159 12.1289 11.0243 12.1289 11.1825V11.701C12.1289 11.8534 12.0996 11.9589 12.041 12.0175C11.9824 12.076 11.8711 12.1053 11.707 12.1053H11.1884ZM14.0713 12.1053C13.9131 12.1053 13.8017 12.076 13.7373 12.0175C13.6787 11.9589 13.6494 11.8534 13.6494 11.701V11.1825C13.6494 11.0243 13.6787 10.9159 13.7373 10.8573C13.8017 10.7987 13.9131 10.7694 14.0713 10.7694H14.581C14.7451 10.7694 14.8564 10.7987 14.915 10.8573C14.9736 10.9159 15.0029 11.0243 15.0029 11.1825V11.701C15.0029 11.8534 14.9736 11.9589 14.915 12.0175C14.8564 12.076 14.7451 12.1053 14.581 12.1053H14.0713ZM5.44919 14.9354C5.29099 14.9354 5.17966 14.9091 5.1152 14.8563C5.05661 14.7977 5.02731 14.6864 5.02731 14.5223V14.0126C5.02731 13.8544 5.05661 13.746 5.1152 13.6874C5.17966 13.6288 5.29099 13.5995 5.44919 13.5995H5.96774C6.12009 13.5995 6.22556 13.6288 6.28415 13.6874C6.3486 13.746 6.38083 13.8544 6.38083 14.0126V14.5223C6.38083 14.6864 6.3486 14.7977 6.28415 14.8563C6.22556 14.9091 6.12009 14.9354 5.96774 14.9354H5.44919ZM8.32321 14.9354C8.16501 14.9354 8.05368 14.9091 7.98923 14.8563C7.93063 14.7977 7.90134 14.6864 7.90134 14.5223V14.0126C7.90134 13.8544 7.93063 13.746 7.98923 13.6874C8.05368 13.6288 8.16501 13.5995 8.32321 13.5995H8.84177C8.99411 13.5995 9.10251 13.6288 9.16696 13.6874C9.23141 13.746 9.26364 13.8544 9.26364 14.0126V14.5223C9.26364 14.6864 9.23141 14.7977 9.16696 14.8563C9.10251 14.9091 8.99411 14.9354 8.84177 14.9354H8.32321ZM11.1884 14.9354C11.0361 14.9354 10.9277 14.9091 10.8633 14.8563C10.8047 14.7977 10.7754 14.6864 10.7754 14.5223V14.0126C10.7754 13.8544 10.8047 13.746 10.8633 13.6874C10.9277 13.6288 11.0361 13.5995 11.1884 13.5995H11.707C11.8711 13.5995 11.9824 13.6288 12.041 13.6874C12.0996 13.746 12.1289 13.8544 12.1289 14.0126V14.5223C12.1289 14.6864 12.0996 14.7977 12.041 14.8563C11.9824 14.9091 11.8711 14.9354 11.707 14.9354H11.1884Z" fill="white"/>
</svg>
