<svg width="48" height="48" viewBox="0 0 48 48" fill="none" xmlns="http://www.w3.org/2000/svg">
<rect width="48" height="48" rx="24" fill="white" fill-opacity="0.1"/>
<path d="M17.3984 30.0703C17.2161 29.8828 17.0938 29.6641 17.0312 29.4141C16.974 29.1641 16.974 28.9167 17.0312 28.6719C17.0938 28.4271 17.2109 28.2188 17.3828 28.0469L21.5547 23.8672L17.3828 19.7031C17.2109 19.5312 17.0964 19.3229 17.0391 19.0781C16.9818 18.8281 16.9818 18.5781 17.0391 18.3281C17.0964 18.0781 17.2161 17.862 17.3984 17.6797C17.5807 17.4922 17.7969 17.3698 18.0469 17.3125C18.3021 17.2552 18.5521 17.2552 18.7969 17.3125C19.0469 17.3698 19.2578 17.4844 19.4297 17.6562L23.6016 21.8203L27.7656 17.6641C27.9427 17.487 28.1536 17.3698 28.3984 17.3125C28.6432 17.25 28.888 17.25 29.1328 17.3125C29.3828 17.375 29.599 17.5 29.7812 17.6875C29.9688 17.8698 30.0938 18.0833 30.1562 18.3281C30.2188 18.5729 30.2188 18.8203 30.1562 19.0703C30.099 19.3151 29.9818 19.526 29.8047 19.7031L25.6484 23.8672L29.8047 28.0391C29.9818 28.2161 30.099 28.4297 30.1562 28.6797C30.2188 28.9245 30.2188 29.1719 30.1562 29.4219C30.0938 29.6667 29.9688 29.8802 29.7812 30.0625C29.599 30.2448 29.3828 30.3672 29.1328 30.4297C28.888 30.4922 28.6432 30.4948 28.3984 30.4375C28.1536 30.3802 27.9427 30.2604 27.7656 30.0781L23.6016 25.9141L19.4297 30.0859C19.2578 30.2578 19.0469 30.3724 18.7969 30.4297C18.5521 30.4922 18.3047 30.4922 18.0547 30.4297C17.8047 30.3724 17.5859 30.2526 17.3984 30.0703Z" fill="white"/>
</svg>
