<svg width="12" height="12" viewBox="0 0 12 12" fill="none" xmlns="http://www.w3.org/2000/svg">
<path d="M2.16602 11.7891C1.51758 11.7891 1.02344 11.6211 0.683594 11.2852C0.347656 10.9531 0.179688 10.4648 0.179688 9.82031V3.12305C0.179688 2.48242 0.347656 1.99414 0.683594 1.6582C1.02344 1.32227 1.51758 1.1543 2.16602 1.1543H8.60547L7.30469 2.46094H2.27734C2.01953 2.46094 1.82227 2.52734 1.68555 2.66016C1.54883 2.79297 1.48047 2.99414 1.48047 3.26367V9.69141C1.48047 9.96094 1.54883 10.1621 1.68555 10.2949C1.82227 10.4238 2.01953 10.4883 2.27734 10.4883H8.8457C9.03711 10.4883 9.19531 10.4238 9.32031 10.2949C9.44531 10.1621 9.50781 9.96094 9.50781 9.69141V4.70508L10.8145 3.4043V9.82031C10.8145 10.4648 10.6504 10.9531 10.3223 11.2852C9.99805 11.6211 9.54102 11.7891 8.95117 11.7891H2.16602ZM4.43945 7.79297C4.36523 7.82031 4.29492 7.80273 4.22852 7.74023C4.16211 7.67773 4.14648 7.60742 4.18164 7.5293L4.70898 6.32812L9.96484 1.07227L10.9258 2.02734L5.66992 7.2832L4.43945 7.79297ZM11.3828 1.57617L10.4219 0.609375L10.8145 0.216797C10.9355 0.0996094 11.0742 0.0351562 11.2305 0.0234375C11.3906 0.0078125 11.5234 0.0507813 11.6289 0.152344L11.7988 0.328125C11.9199 0.445312 11.9785 0.582031 11.9746 0.738281C11.9707 0.894531 11.9062 1.03711 11.7812 1.16602L11.3828 1.57617Z" fill="white"/>
</svg>
