<svg width="48" height="48" viewBox="0 0 48 48" fill="none" xmlns="http://www.w3.org/2000/svg">
<rect width="48" height="48" rx="24" fill="white" fill-opacity="0.1"/>
<path d="M38.3626 14.7926C38.3313 14.6577 38.2662 14.533 38.1734 14.4302C38.0806 14.3275 37.9632 14.25 37.8323 14.2051L35.6047 13.4626L34.8622 11.2351C34.8182 11.0968 34.7381 10.9728 34.6302 10.8758C34.5223 10.7788 34.3905 10.7123 34.2483 10.6832C34.1062 10.6541 33.9588 10.6634 33.8215 10.7103C33.6842 10.7571 33.5618 10.8397 33.467 10.9495L30.4399 13.9766C30.3364 14.0822 30.2635 14.2138 30.229 14.3575C30.1945 14.5012 30.1997 14.6516 30.244 14.7926L30.9539 16.9222L29.9911 17.9339C30.4065 18.2841 30.7914 18.669 31.1416 19.0844L32.1125 18.1216L34.2829 18.8723C34.3675 18.8983 34.4555 18.9121 34.544 18.9131C34.7581 18.9122 34.9632 18.8272 35.1152 18.6764L38.126 15.6085C38.2366 15.5074 38.3171 15.3777 38.3589 15.2338C38.4006 15.0898 38.4019 14.9372 38.3626 14.7926ZM28.5714 25.3998C28.5722 26.4972 28.2044 27.563 27.5269 28.4263C26.8494 29.2895 25.9014 29.9001 24.8353 30.16C23.7691 30.4199 22.6466 30.3141 21.6478 29.8595C20.649 29.405 19.8319 28.628 19.3276 27.6533C18.8233 26.6787 18.6612 25.5629 18.8671 24.485C19.073 23.4071 19.6351 22.4297 20.4632 21.7096C21.2912 20.9894 22.3372 20.5684 23.4333 20.5141C24.5293 20.4597 25.6118 20.7752 26.507 21.4098L29.9911 17.9339C28.0625 16.3022 25.5778 15.479 23.0564 15.6365C20.535 15.794 18.172 16.92 16.4615 18.7791C14.7509 20.6382 13.8251 23.0865 13.8777 25.6123C13.9302 28.1381 14.957 30.5458 16.7433 32.3322C18.5297 34.1185 20.9374 35.1453 23.4632 35.1978C25.989 35.2504 28.4373 34.3246 30.2964 32.614C32.1555 30.9035 33.2815 28.5405 33.439 26.0191C33.5965 23.4977 32.7733 21.013 31.1416 19.0844L27.6657 22.5685C28.2537 23.3956 28.5702 24.3849 28.5714 25.3998Z" fill="white"/>
<path d="M24.2553 25.9789C24.1794 26.0554 24.0892 26.1161 23.9898 26.1575C23.8903 26.199 23.7837 26.2203 23.676 26.2203C23.5683 26.2203 23.4616 26.199 23.3622 26.1575C23.2628 26.1161 23.1725 26.0554 23.0967 25.9789C23.0202 25.9031 22.9595 25.8128 22.9181 25.7134C22.8766 25.614 22.8553 25.5073 22.8553 25.3996C22.8553 25.2919 22.8766 25.1853 22.9181 25.0858C22.9595 24.9864 23.0202 24.8962 23.0967 24.8203L25.3079 22.6009C24.6151 22.1922 23.797 22.0501 23.0069 22.2015C22.2169 22.3528 21.5092 22.7871 21.0165 23.423C20.5238 24.0588 20.2799 24.8525 20.3306 25.6553C20.3813 26.4581 20.7231 27.2149 21.2919 27.7837C21.8607 28.3525 22.6175 28.6943 23.4203 28.745C24.2231 28.7957 25.0168 28.5518 25.6526 28.0591C26.2885 27.5664 26.7228 26.8587 26.8741 26.0687C27.0255 25.2786 26.8834 24.4605 26.4747 23.7677L24.2553 25.9789Z" fill="white"/>
</svg>
