<svg width="21" height="20" viewBox="0 0 21 20" fill="none" xmlns="http://www.w3.org/2000/svg">
<path d="M9.24636 10.7541C9.24636 10.1067 9.36753 9.49905 9.60986 8.93119C9.85581 8.36334 10.1922 7.86421 10.619 7.4338C11.0494 7.00339 11.5485 6.66702 12.1164 6.42468C12.6878 6.18235 13.2973 6.06118 13.9447 6.06118C14.5958 6.06118 15.2034 6.18235 15.7676 6.42468C16.3355 6.66702 16.8346 7.00339 17.265 7.4338C17.6991 7.86421 18.0372 8.36334 18.2796 8.93119C18.5219 9.49905 18.6431 10.1067 18.6431 10.7541C18.6431 11.1701 18.5906 11.5697 18.4857 11.9531C18.3808 12.3365 18.2325 12.6946 18.0409 13.0273L19.9289 14.9208C20.0627 15.0546 20.1604 15.2029 20.2218 15.3657C20.2869 15.5284 20.3195 15.6984 20.3195 15.8756C20.3195 16.1288 20.2598 16.3567 20.1405 16.5592C20.0247 16.7618 19.8656 16.9209 19.663 17.0367C19.4641 17.156 19.2362 17.2157 18.9794 17.2157C18.7986 17.2157 18.6232 17.185 18.4532 17.1235C18.2868 17.062 18.1385 16.9661 18.0083 16.8359L16.0932 14.9208C15.7749 15.0908 15.4349 15.2228 15.0732 15.3168C14.7115 15.4109 14.3353 15.4579 13.9447 15.4579C13.2973 15.4579 12.6878 15.3367 12.1164 15.0944C11.5485 14.8521 11.0494 14.5157 10.619 14.0853C10.1922 13.6512 9.85581 13.1503 9.60986 12.5825C9.36753 12.0146 9.24636 11.4052 9.24636 10.7541ZM11.0259 10.7541C11.0259 11.1592 11.1 11.539 11.2483 11.8934C11.4002 12.2443 11.61 12.5535 11.8777 12.8212C12.1489 13.0888 12.46 13.2986 12.8108 13.4505C13.1653 13.5988 13.5414 13.6729 13.9393 13.6729C14.3444 13.6729 14.7223 13.5988 15.0732 13.4505C15.4276 13.2986 15.7387 13.0888 16.0063 12.8212C16.274 12.5535 16.4838 12.2443 16.6357 11.8934C16.7876 11.539 16.8636 11.1592 16.8636 10.7541C16.8636 10.3526 16.7876 9.97648 16.6357 9.62564C16.4838 9.2748 16.274 8.96555 16.0063 8.6979C15.7387 8.42664 15.4276 8.21686 15.0732 8.06856C14.7223 7.91665 14.3444 7.8407 13.9393 7.8407C13.5414 7.8407 13.1653 7.91665 12.8108 8.06856C12.46 8.21686 12.1489 8.42664 11.8777 8.6979C11.61 8.96555 11.4002 9.2748 11.2483 9.62564C11.1 9.97648 11.0259 10.3526 11.0259 10.7541Z" fill="white"/>
<rect opacity="0.4" x="0.442993" y="2.22223" width="18.8889" height="2.22222" rx="1.11111" fill="white"/>
<rect opacity="0.4" x="0.442993" y="8.88889" width="6.66667" height="2.22222" rx="1.11111" fill="white"/>
<rect opacity="0.4" x="0.442993" y="15.5555" width="6.66667" height="2.22222" rx="1.11111" fill="white"/>
</svg>
