<svg width="48" height="48" viewBox="0 0 48 48" fill="none" xmlns="http://www.w3.org/2000/svg">
<rect width="48" height="48" rx="24" fill="white" fill-opacity="0.1"/>
<path opacity="0.9" d="M14.4617 32.4706C13.3135 32.4706 12.4338 32.1684 11.8228 31.5641C11.2118 30.9598 10.9062 30.0835 10.9062 28.9353V19.0546C10.9062 17.9131 11.2118 17.0402 11.8228 16.4359C12.4338 15.8316 13.3135 15.5294 14.4617 15.5294H33.5381C34.6863 15.5294 35.566 15.8316 36.177 16.4359C36.788 17.0402 37.0936 17.9131 37.0936 19.0546V28.9353C37.0936 30.0768 36.788 30.9497 36.177 31.554C35.566 32.1651 34.6863 32.4706 33.5381 32.4706H14.4617ZM15.3682 21.7137H16.3552C16.7111 21.7137 16.889 21.5391 16.889 21.1899V20.1928C16.889 19.8369 16.7111 19.659 16.3552 19.659H15.3682C15.0123 19.659 14.8343 19.8369 14.8343 20.1928V21.1899C14.8343 21.5391 15.0123 21.7137 15.3682 21.7137ZM18.6114 21.7137H19.5984C19.9543 21.7137 20.1322 21.5391 20.1322 21.1899V20.1928C20.1322 19.8369 19.9543 19.659 19.5984 19.659H18.6114C18.2622 19.659 18.0876 19.8369 18.0876 20.1928V21.1899C18.0876 21.5391 18.2622 21.7137 18.6114 21.7137ZM21.8747 21.7137H22.8517C23.2076 21.7137 23.3855 21.5391 23.3855 21.1899V20.1928C23.3855 19.8369 23.2076 19.659 22.8517 19.659H21.8747C21.5188 19.659 21.3409 19.8369 21.3409 20.1928V21.1899C21.3409 21.5391 21.5188 21.7137 21.8747 21.7137ZM25.1179 21.7137H26.105C26.4608 21.7137 26.6388 21.5391 26.6388 21.1899V20.1928C26.6388 19.8369 26.4608 19.659 26.105 19.659H25.1179C24.7687 19.659 24.5942 19.8369 24.5942 20.1928V21.1899C24.5942 21.5391 24.7687 21.7137 25.1179 21.7137ZM28.4316 21.7137H29.3683C29.7108 21.7137 29.882 21.5391 29.882 21.1899V20.1928C29.882 19.8369 29.7108 19.659 29.3683 19.659H28.4316C28.0354 19.659 27.8374 19.8369 27.8374 20.1928V21.1899C27.8374 21.5391 28.0354 21.7137 28.4316 21.7137ZM31.6244 21.7137H32.6115C32.9674 21.7137 33.1453 21.5391 33.1453 21.1899V20.1928C33.1453 19.8369 32.9674 19.659 32.6115 19.659H31.6244C31.2686 19.659 31.0906 19.8369 31.0906 20.1928V21.1899C31.0906 21.5391 31.2686 21.7137 31.6244 21.7137ZM15.3682 25.0374H16.3552C16.7111 25.0374 16.889 24.8595 16.889 24.5036V23.5065C16.889 23.1506 16.7111 22.9727 16.3552 22.9727H15.3682C15.0123 22.9727 14.8343 23.1506 14.8343 23.5065V24.5036C14.8343 24.8595 15.0123 25.0374 15.3682 25.0374ZM18.6114 25.0374H19.5984C19.9543 25.0374 20.1322 24.8595 20.1322 24.5036V23.5065C20.1322 23.1506 19.9543 22.9727 19.5984 22.9727H18.6114C18.2622 22.9727 18.0876 23.1506 18.0876 23.5065V24.5036C18.0876 24.8595 18.2622 25.0374 18.6114 25.0374ZM21.8747 25.0374H22.8517C23.2076 25.0374 23.3855 24.8595 23.3855 24.5036V23.5065C23.3855 23.1506 23.2076 22.9727 22.8517 22.9727H21.8747C21.5188 22.9727 21.3409 23.1506 21.3409 23.5065V24.5036C21.3409 24.8595 21.5188 25.0374 21.8747 25.0374ZM25.1179 25.0374H26.105C26.4608 25.0374 26.6388 24.8595 26.6388 24.5036V23.5065C26.6388 23.1506 26.4608 22.9727 26.105 22.9727H25.1179C24.7687 22.9727 24.5942 23.1506 24.5942 23.5065V24.5036C24.5942 24.8595 24.7687 25.0374 25.1179 25.0374ZM28.4316 25.0374H29.3683C29.7108 25.0374 29.882 24.8595 29.882 24.5036V23.5065C29.882 23.1506 29.7108 22.9727 29.3683 22.9727H28.4316C28.0354 22.9727 27.8374 23.1506 27.8374 23.5065V24.5036C27.8374 24.8595 28.0354 25.0374 28.4316 25.0374ZM31.6244 25.0374H32.6115C32.9674 25.0374 33.1453 24.8595 33.1453 24.5036V23.5065C33.1453 23.1506 32.9674 22.9727 32.6115 22.9727H31.6244C31.2686 22.9727 31.0906 23.1506 31.0906 23.5065V24.5036C31.0906 24.8595 31.2686 25.0374 31.6244 25.0374ZM15.3682 28.3511H16.3552C16.7111 28.3511 16.889 28.1732 16.889 27.8173V26.8202C16.889 26.471 16.7111 26.2964 16.3552 26.2964H15.3682C15.0123 26.2964 14.8343 26.471 14.8343 26.8202V27.8173C14.8343 28.1732 15.0123 28.3511 15.3682 28.3511ZM18.6718 28.3511H29.2978C29.6873 28.3511 29.882 28.153 29.882 27.7569V26.8806C29.882 26.4912 29.6873 26.2964 29.2978 26.2964H18.6718C18.2823 26.2964 18.0876 26.4912 18.0876 26.8806V27.7569C18.0876 28.153 18.2823 28.3511 18.6718 28.3511ZM31.6244 28.3511H32.6115C32.9674 28.3511 33.1453 28.1732 33.1453 27.8173V26.8202C33.1453 26.471 32.9674 26.2964 32.6115 26.2964H31.6244C31.2686 26.2964 31.0906 26.471 31.0906 26.8202V27.8173C31.0906 28.1732 31.2686 28.3511 31.6244 28.3511Z" fill="white"/>
</svg>
