<svg width="14" height="13" viewBox="0 0 14 13" fill="none" xmlns="http://www.w3.org/2000/svg">
<path d="M10.8926 5.06445C10.334 5.06445 10.0547 4.85352 10.0547 4.43164C10.0547 4.42383 10.0547 4.41992 10.0547 4.41992C10.0547 4.41602 10.0547 4.41016 10.0547 4.40234C10.0547 4.20312 10.1172 4.03125 10.2422 3.88672C10.3672 3.74219 10.5312 3.59766 10.7344 3.45312C10.957 3.30078 11.127 3.17773 11.2441 3.08398C11.3613 2.98633 11.4199 2.86523 11.4199 2.7207C11.4199 2.60352 11.3711 2.5 11.2734 2.41016C11.1758 2.32031 11.0547 2.27539 10.9102 2.27539C10.8359 2.27539 10.7637 2.28711 10.6934 2.31055C10.627 2.33398 10.5625 2.37109 10.5 2.42188C10.4414 2.46875 10.3828 2.53125 10.3242 2.60938L10.2715 2.67383C10.2012 2.76758 10.1152 2.83789 10.0137 2.88477C9.91211 2.92773 9.79688 2.94922 9.66797 2.94922C9.47656 2.94922 9.32031 2.88867 9.19922 2.76758C9.08203 2.64258 9.02344 2.49414 9.02344 2.32227C9.02344 2.25977 9.0293 2.19922 9.04102 2.14062C9.05664 2.07812 9.07617 2.01758 9.09961 1.95898C9.22461 1.66992 9.46289 1.43555 9.81445 1.25586C10.166 1.07227 10.5898 0.980469 11.0859 0.980469C11.4805 0.980469 11.834 1.05078 12.1465 1.19141C12.4629 1.32812 12.7129 1.51953 12.8965 1.76562C13.084 2.01172 13.1777 2.29688 13.1777 2.62109C13.1777 2.92969 13.1074 3.17969 12.9668 3.37109C12.8262 3.55859 12.6035 3.75 12.2988 3.94531C12.1465 4.03516 12.0117 4.12891 11.8945 4.22656C11.7812 4.32031 11.709 4.42383 11.6777 4.53711C11.6738 4.54492 11.6699 4.55664 11.666 4.57227C11.6621 4.58398 11.6602 4.59375 11.6602 4.60156C11.6289 4.73828 11.543 4.84961 11.4023 4.93555C11.2656 5.02148 11.0957 5.06445 10.8926 5.06445ZM10.8926 7.01562C10.6465 7.01562 10.4414 6.94727 10.2773 6.81055C10.1133 6.67383 10.0312 6.49023 10.0312 6.25977C10.0312 6.02539 10.1133 5.8418 10.2773 5.70898C10.4414 5.57227 10.6465 5.50391 10.8926 5.50391C11.1387 5.50391 11.3438 5.57227 11.5078 5.70898C11.6719 5.8457 11.7539 6.0293 11.7539 6.25977C11.7539 6.49023 11.6719 6.67383 11.5078 6.81055C11.3438 6.94727 11.1387 7.01562 10.8926 7.01562ZM1.21289 12.1543C0.830078 12.1543 0.53125 12.0664 0.316406 11.8906C0.101562 11.7148 -0.00585938 11.4707 -0.00585938 11.1582C-0.00585938 10.7871 0.111328 10.3965 0.345703 9.98633C0.583984 9.57617 0.921875 9.19336 1.35938 8.83789C1.80078 8.47852 2.33008 8.1875 2.94727 7.96484C3.56445 7.74219 4.25195 7.63086 5.00977 7.63086C5.77148 7.63086 6.45898 7.74219 7.07227 7.96484C7.68555 8.1875 8.21289 8.47852 8.6543 8.83789C9.0957 9.19336 9.43359 9.57617 9.66797 9.98633C9.90234 10.3965 10.0195 10.7871 10.0195 11.1582C10.0195 11.4707 9.91211 11.7148 9.69727 11.8906C9.48633 12.0664 9.18945 12.1543 8.80664 12.1543H1.21289ZM5.00977 6.62305C4.55664 6.62305 4.14648 6.50586 3.7793 6.27148C3.41602 6.0332 3.125 5.71484 2.90625 5.31641C2.69141 4.91406 2.58398 4.46875 2.58398 3.98047C2.58398 3.50781 2.69336 3.07422 2.91211 2.67969C3.13086 2.28125 3.42383 1.96484 3.79102 1.73047C4.1582 1.49609 4.56445 1.37891 5.00977 1.37891C5.45508 1.37891 5.86133 1.49609 6.22852 1.73047C6.59961 1.96484 6.89258 2.2793 7.10742 2.67383C7.32617 3.06836 7.43555 3.50195 7.43555 3.97461C7.43555 4.4668 7.32617 4.91406 7.10742 5.31641C6.89258 5.71484 6.60156 6.0332 6.23438 6.27148C5.86719 6.50586 5.45898 6.62305 5.00977 6.62305Z" fill="#12548B"/>
<path d="M10.8926 5.06445C10.334 5.06445 10.0547 4.85352 10.0547 4.43164C10.0547 4.42383 10.0547 4.41992 10.0547 4.41992C10.0547 4.41602 10.0547 4.41016 10.0547 4.40234C10.0547 4.20312 10.1172 4.03125 10.2422 3.88672C10.3672 3.74219 10.5312 3.59766 10.7344 3.45312C10.957 3.30078 11.127 3.17773 11.2441 3.08398C11.3613 2.98633 11.4199 2.86523 11.4199 2.7207C11.4199 2.60352 11.3711 2.5 11.2734 2.41016C11.1758 2.32031 11.0547 2.27539 10.9102 2.27539C10.8359 2.27539 10.7637 2.28711 10.6934 2.31055C10.627 2.33398 10.5625 2.37109 10.5 2.42188C10.4414 2.46875 10.3828 2.53125 10.3242 2.60938L10.2715 2.67383C10.2012 2.76758 10.1152 2.83789 10.0137 2.88477C9.91211 2.92773 9.79688 2.94922 9.66797 2.94922C9.47656 2.94922 9.32031 2.88867 9.19922 2.76758C9.08203 2.64258 9.02344 2.49414 9.02344 2.32227C9.02344 2.25977 9.0293 2.19922 9.04102 2.14062C9.05664 2.07812 9.07617 2.01758 9.09961 1.95898C9.22461 1.66992 9.46289 1.43555 9.81445 1.25586C10.166 1.07227 10.5898 0.980469 11.0859 0.980469C11.4805 0.980469 11.834 1.05078 12.1465 1.19141C12.4629 1.32812 12.7129 1.51953 12.8965 1.76562C13.084 2.01172 13.1777 2.29688 13.1777 2.62109C13.1777 2.92969 13.1074 3.17969 12.9668 3.37109C12.8262 3.55859 12.6035 3.75 12.2988 3.94531C12.1465 4.03516 12.0117 4.12891 11.8945 4.22656C11.7812 4.32031 11.709 4.42383 11.6777 4.53711C11.6738 4.54492 11.6699 4.55664 11.666 4.57227C11.6621 4.58398 11.6602 4.59375 11.6602 4.60156C11.6289 4.73828 11.543 4.84961 11.4023 4.93555C11.2656 5.02148 11.0957 5.06445 10.8926 5.06445ZM10.8926 7.01562C10.6465 7.01562 10.4414 6.94727 10.2773 6.81055C10.1133 6.67383 10.0312 6.49023 10.0312 6.25977C10.0312 6.02539 10.1133 5.8418 10.2773 5.70898C10.4414 5.57227 10.6465 5.50391 10.8926 5.50391C11.1387 5.50391 11.3438 5.57227 11.5078 5.70898C11.6719 5.8457 11.7539 6.0293 11.7539 6.25977C11.7539 6.49023 11.6719 6.67383 11.5078 6.81055C11.3438 6.94727 11.1387 7.01562 10.8926 7.01562ZM1.21289 12.1543C0.830078 12.1543 0.53125 12.0664 0.316406 11.8906C0.101562 11.7148 -0.00585938 11.4707 -0.00585938 11.1582C-0.00585938 10.7871 0.111328 10.3965 0.345703 9.98633C0.583984 9.57617 0.921875 9.19336 1.35938 8.83789C1.80078 8.47852 2.33008 8.1875 2.94727 7.96484C3.56445 7.74219 4.25195 7.63086 5.00977 7.63086C5.77148 7.63086 6.45898 7.74219 7.07227 7.96484C7.68555 8.1875 8.21289 8.47852 8.6543 8.83789C9.0957 9.19336 9.43359 9.57617 9.66797 9.98633C9.90234 10.3965 10.0195 10.7871 10.0195 11.1582C10.0195 11.4707 9.91211 11.7148 9.69727 11.8906C9.48633 12.0664 9.18945 12.1543 8.80664 12.1543H1.21289ZM5.00977 6.62305C4.55664 6.62305 4.14648 6.50586 3.7793 6.27148C3.41602 6.0332 3.125 5.71484 2.90625 5.31641C2.69141 4.91406 2.58398 4.46875 2.58398 3.98047C2.58398 3.50781 2.69336 3.07422 2.91211 2.67969C3.13086 2.28125 3.42383 1.96484 3.79102 1.73047C4.1582 1.49609 4.56445 1.37891 5.00977 1.37891C5.45508 1.37891 5.86133 1.49609 6.22852 1.73047C6.59961 1.96484 6.89258 2.2793 7.10742 2.67383C7.32617 3.06836 7.43555 3.50195 7.43555 3.97461C7.43555 4.4668 7.32617 4.91406 7.10742 5.31641C6.89258 5.71484 6.60156 6.0332 6.23438 6.27148C5.86719 6.50586 5.45898 6.62305 5.00977 6.62305Z" fill="url(#paint0_linear_190_11905)"/>
<path d="M10.8926 5.06445C10.334 5.06445 10.0547 4.85352 10.0547 4.43164C10.0547 4.42383 10.0547 4.41992 10.0547 4.41992C10.0547 4.41602 10.0547 4.41016 10.0547 4.40234C10.0547 4.20312 10.1172 4.03125 10.2422 3.88672C10.3672 3.74219 10.5312 3.59766 10.7344 3.45312C10.957 3.30078 11.127 3.17773 11.2441 3.08398C11.3613 2.98633 11.4199 2.86523 11.4199 2.7207C11.4199 2.60352 11.3711 2.5 11.2734 2.41016C11.1758 2.32031 11.0547 2.27539 10.9102 2.27539C10.8359 2.27539 10.7637 2.28711 10.6934 2.31055C10.627 2.33398 10.5625 2.37109 10.5 2.42188C10.4414 2.46875 10.3828 2.53125 10.3242 2.60938L10.2715 2.67383C10.2012 2.76758 10.1152 2.83789 10.0137 2.88477C9.91211 2.92773 9.79688 2.94922 9.66797 2.94922C9.47656 2.94922 9.32031 2.88867 9.19922 2.76758C9.08203 2.64258 9.02344 2.49414 9.02344 2.32227C9.02344 2.25977 9.0293 2.19922 9.04102 2.14062C9.05664 2.07812 9.07617 2.01758 9.09961 1.95898C9.22461 1.66992 9.46289 1.43555 9.81445 1.25586C10.166 1.07227 10.5898 0.980469 11.0859 0.980469C11.4805 0.980469 11.834 1.05078 12.1465 1.19141C12.4629 1.32812 12.7129 1.51953 12.8965 1.76562C13.084 2.01172 13.1777 2.29688 13.1777 2.62109C13.1777 2.92969 13.1074 3.17969 12.9668 3.37109C12.8262 3.55859 12.6035 3.75 12.2988 3.94531C12.1465 4.03516 12.0117 4.12891 11.8945 4.22656C11.7812 4.32031 11.709 4.42383 11.6777 4.53711C11.6738 4.54492 11.6699 4.55664 11.666 4.57227C11.6621 4.58398 11.6602 4.59375 11.6602 4.60156C11.6289 4.73828 11.543 4.84961 11.4023 4.93555C11.2656 5.02148 11.0957 5.06445 10.8926 5.06445ZM10.8926 7.01562C10.6465 7.01562 10.4414 6.94727 10.2773 6.81055C10.1133 6.67383 10.0312 6.49023 10.0312 6.25977C10.0312 6.02539 10.1133 5.8418 10.2773 5.70898C10.4414 5.57227 10.6465 5.50391 10.8926 5.50391C11.1387 5.50391 11.3438 5.57227 11.5078 5.70898C11.6719 5.8457 11.7539 6.0293 11.7539 6.25977C11.7539 6.49023 11.6719 6.67383 11.5078 6.81055C11.3438 6.94727 11.1387 7.01562 10.8926 7.01562ZM1.21289 12.1543C0.830078 12.1543 0.53125 12.0664 0.316406 11.8906C0.101562 11.7148 -0.00585938 11.4707 -0.00585938 11.1582C-0.00585938 10.7871 0.111328 10.3965 0.345703 9.98633C0.583984 9.57617 0.921875 9.19336 1.35938 8.83789C1.80078 8.47852 2.33008 8.1875 2.94727 7.96484C3.56445 7.74219 4.25195 7.63086 5.00977 7.63086C5.77148 7.63086 6.45898 7.74219 7.07227 7.96484C7.68555 8.1875 8.21289 8.47852 8.6543 8.83789C9.0957 9.19336 9.43359 9.57617 9.66797 9.98633C9.90234 10.3965 10.0195 10.7871 10.0195 11.1582C10.0195 11.4707 9.91211 11.7148 9.69727 11.8906C9.48633 12.0664 9.18945 12.1543 8.80664 12.1543H1.21289ZM5.00977 6.62305C4.55664 6.62305 4.14648 6.50586 3.7793 6.27148C3.41602 6.0332 3.125 5.71484 2.90625 5.31641C2.69141 4.91406 2.58398 4.46875 2.58398 3.98047C2.58398 3.50781 2.69336 3.07422 2.91211 2.67969C3.13086 2.28125 3.42383 1.96484 3.79102 1.73047C4.1582 1.49609 4.56445 1.37891 5.00977 1.37891C5.45508 1.37891 5.86133 1.49609 6.22852 1.73047C6.59961 1.96484 6.89258 2.2793 7.10742 2.67383C7.32617 3.06836 7.43555 3.50195 7.43555 3.97461C7.43555 4.4668 7.32617 4.91406 7.10742 5.31641C6.89258 5.71484 6.60156 6.0332 6.23438 6.27148C5.86719 6.50586 5.45898 6.62305 5.00977 6.62305Z" fill="white"/>
<defs>
<linearGradient id="paint0_linear_190_11905" x1="-3.17094" y1="31.0625" x2="18.6072" y2="-6.47785" gradientUnits="userSpaceOnUse">
<stop stop-color="#88C800"/>
<stop offset="0.423077" stop-color="#10B8FF"/>
<stop offset="1" stop-color="#9318EA"/>
</linearGradient>
</defs>
</svg>
