<svg width="12" height="10" viewBox="0 0 12 10" fill="none" xmlns="http://www.w3.org/2000/svg">
<path d="M11.0684 5.26367C11.0684 5.44727 11 5.60742 10.8633 5.74414L6.99609 9.59961C6.85938 9.73242 6.70508 9.79883 6.5332 9.79883C6.35352 9.79883 6.20312 9.74023 6.08203 9.62305C5.96484 9.50586 5.90625 9.35938 5.90625 9.18359C5.90625 9.09375 5.92188 9.00977 5.95312 8.93164C5.98828 8.85352 6.03516 8.78516 6.09375 8.72656L7.40625 7.40234L9.5918 5.41016L9.79688 5.78516L7.76367 5.90234H0.644531C0.449219 5.90234 0.291016 5.84375 0.169922 5.72656C0.0527344 5.60547 -0.00585938 5.45117 -0.00585938 5.26367C-0.00585938 5.07227 0.0527344 4.91797 0.169922 4.80078C0.291016 4.67969 0.449219 4.61914 0.644531 4.61914H7.76367L9.79688 4.74219L9.5918 5.12305L7.40625 3.125L6.09375 1.79492C6.03516 1.73633 5.98828 1.66992 5.95312 1.5957C5.92188 1.51758 5.90625 1.43164 5.90625 1.33789C5.90625 1.16211 5.96484 1.01562 6.08203 0.898438C6.20312 0.78125 6.35352 0.722656 6.5332 0.722656C6.61914 0.722656 6.70117 0.740234 6.7793 0.775391C6.85742 0.810547 6.93164 0.863281 7.00195 0.933594L10.8633 4.7832C11 4.91992 11.0684 5.08008 11.0684 5.26367Z" fill="white"/>
</svg>
