<svg width="22" height="22" viewBox="0 0 22 22" fill="none" xmlns="http://www.w3.org/2000/svg">
<path d="M11.0664 21.1348C9.66016 21.1348 8.3418 20.8678 7.11133 20.334C5.88086 19.8066 4.79688 19.0742 3.85938 18.1367C2.92839 17.2057 2.19922 16.1283 1.67188 14.9043C1.14453 13.6738 0.880859 12.3555 0.880859 10.9492C0.880859 9.54297 1.14453 8.22461 1.67188 6.99414C2.19922 5.76367 2.92839 4.68294 3.85938 3.75195C4.79688 2.81445 5.88086 2.08203 7.11133 1.55469C8.3418 1.02734 9.66016 0.763672 11.0664 0.763672C12.4727 0.763672 13.791 1.02734 15.0215 1.55469C16.252 2.08203 17.3327 2.81445 18.2637 3.75195C19.1947 4.68294 19.9238 5.76367 20.4512 6.99414C20.985 8.22461 21.252 9.54297 21.252 10.9492C21.252 12.3555 20.985 13.6738 20.4512 14.9043C19.9238 16.1283 19.1947 17.2057 18.2637 18.1367C17.3327 19.0742 16.252 19.8066 15.0215 20.334C13.791 20.8678 12.4727 21.1348 11.0664 21.1348ZM5.89062 9.02539H16.2617C16.5352 9.02539 16.7598 8.94727 16.9355 8.79102C17.1113 8.62826 17.1992 8.41992 17.1992 8.16602C17.1992 7.89909 17.1113 7.6875 16.9355 7.53125C16.7598 7.36849 16.5352 7.28711 16.2617 7.28711H5.89062C5.61719 7.28711 5.39258 7.36849 5.2168 7.53125C5.04102 7.6875 4.95312 7.89909 4.95312 8.16602C4.95312 8.41992 5.04102 8.62826 5.2168 8.79102C5.39258 8.94727 5.61719 9.02539 5.89062 9.02539ZM7.23828 12.3945H14.9238C15.1973 12.3945 15.4219 12.3164 15.5977 12.1602C15.7734 11.9974 15.8613 11.7858 15.8613 11.5254C15.8613 11.265 15.7734 11.0534 15.5977 10.8906C15.4219 10.7279 15.1973 10.6465 14.9238 10.6465H7.23828C6.95833 10.6465 6.73047 10.7279 6.55469 10.8906C6.37891 11.0534 6.29102 11.265 6.29102 11.5254C6.29102 11.7858 6.37891 11.9974 6.55469 12.1602C6.73047 12.3164 6.95833 12.3945 7.23828 12.3945ZM8.625 15.7637H13.5371C13.8105 15.7637 14.0352 15.6855 14.2109 15.5293C14.3867 15.3665 14.4746 15.1549 14.4746 14.8945C14.4746 14.6341 14.3867 14.4258 14.2109 14.2695C14.0352 14.1068 13.8105 14.0254 13.5371 14.0254H8.625C8.34505 14.0254 8.11719 14.1068 7.94141 14.2695C7.76562 14.4258 7.67773 14.6341 7.67773 14.8945C7.67773 15.1549 7.76562 15.3665 7.94141 15.5293C8.11719 15.6855 8.34505 15.7637 8.625 15.7637Z" fill="white"/>
</svg>
