<svg width="21" height="20" viewBox="0 0 21 20" fill="none" xmlns="http://www.w3.org/2000/svg">
<path opacity="0.6" d="M1.69727 6.80469C1.05924 6.80469 0.740234 6.47917 0.740234 5.82812V3.45508C0.740234 2.41341 1.01042 1.62565 1.55078 1.0918C2.09115 0.557943 2.88867 0.291016 3.94336 0.291016H6.31641C6.96094 0.291016 7.2832 0.610026 7.2832 1.24805C7.2832 1.89258 6.96094 2.21484 6.31641 2.21484H4.06055C3.60482 2.21484 3.25651 2.33203 3.01562 2.56641C2.78125 2.80078 2.66406 3.1556 2.66406 3.63086V5.82812C2.66406 6.47917 2.3418 6.80469 1.69727 6.80469ZM19.1289 6.80469C18.4909 6.80469 18.1719 6.47917 18.1719 5.82812V3.63086C18.1719 3.1556 18.0482 2.80078 17.8008 2.56641C17.5599 2.33203 17.2148 2.21484 16.7656 2.21484H14.5098C13.8652 2.21484 13.543 1.89258 13.543 1.24805C13.543 0.610026 13.8652 0.291016 14.5098 0.291016H16.8828C17.944 0.291016 18.7448 0.557943 19.2852 1.0918C19.8255 1.62565 20.0957 2.41341 20.0957 3.45508V5.82812C20.0957 6.47917 19.7734 6.80469 19.1289 6.80469ZM3.94336 19.6367C2.88867 19.6367 2.09115 19.3665 1.55078 18.8262C1.01042 18.2923 0.740234 17.5046 0.740234 16.4629V14.0996C0.740234 13.4486 1.05924 13.123 1.69727 13.123C2.3418 13.123 2.66406 13.4486 2.66406 14.0996V16.2969C2.66406 16.7721 2.78125 17.127 3.01562 17.3613C3.25651 17.5957 3.60482 17.7129 4.06055 17.7129H6.31641C6.96094 17.7129 7.2832 18.0352 7.2832 18.6797C7.2832 19.3177 6.96094 19.6367 6.31641 19.6367H3.94336ZM14.5098 19.6367C13.8652 19.6367 13.543 19.3177 13.543 18.6797C13.543 18.0352 13.8652 17.7129 14.5098 17.7129H16.7656C17.2148 17.7129 17.5599 17.5957 17.8008 17.3613C18.0482 17.127 18.1719 16.7721 18.1719 16.2969V14.0996C18.1719 13.4486 18.4909 13.123 19.1289 13.123C19.7734 13.123 20.0957 13.4486 20.0957 14.0996V16.4629C20.0957 17.5046 19.8255 18.2923 19.2852 18.8262C18.7448 19.3665 17.944 19.6367 16.8828 19.6367H14.5098ZM5.97461 13.9531V5.97461H6.67773V13.9531H5.97461ZM7.55664 13.9531V5.97461H8.86523V13.9531H7.55664ZM9.45117 13.9531V5.97461H10.2715V13.9531H9.45117ZM11.0137 13.9531V5.97461H12.293V13.9531H11.0137ZM12.8203 13.9531V5.97461H13.8359V13.9531H12.8203ZM14.207 13.9531V5.97461H14.8613V13.9531H14.207Z" fill="white"/>
</svg>
