<svg width="42" height="40" viewBox="0 0 42 40" fill="none" xmlns="http://www.w3.org/2000/svg">
<path d="M12.9629 39.8398C12.3418 39.8398 11.8496 39.6406 11.4863 39.2422C11.123 38.8438 10.9414 38.2988 10.9414 37.6074V32.6855H8.91992C7.36133 32.6855 5.94336 32.3223 4.66602 31.5957C3.40039 30.8574 2.38672 29.8203 1.625 28.4844C0.863281 27.1484 0.482422 25.5723 0.482422 23.7559V9.58789C0.482422 7.77148 0.845703 6.19531 1.57227 4.85938C2.29883 3.52344 3.33008 2.49219 4.66602 1.76562C6.00195 1.02734 7.57812 0.658203 9.39453 0.658203H33.002C34.8184 0.658203 36.3945 1.02734 37.7305 1.76562C39.0664 2.49219 40.0977 3.52344 40.8242 4.85938C41.5508 6.19531 41.9141 7.77148 41.9141 9.58789V23.7559C41.9141 25.5723 41.5508 27.1484 40.8242 28.4844C40.0977 29.8203 39.0664 30.8574 37.7305 31.5957C36.3945 32.3223 34.8184 32.6855 33.002 32.6855H22.2969L15.582 38.5566C15.0664 39.0254 14.6094 39.3535 14.2109 39.541C13.8125 39.7402 13.3965 39.8398 12.9629 39.8398ZM19.2734 25.6191C19.6953 25.6191 20.0879 25.5195 20.4512 25.3203C20.8262 25.1094 21.1426 24.8223 21.4004 24.459L29.5215 12.2598C29.6855 12.0137 29.8086 11.7617 29.8906 11.5039C29.9844 11.2461 30.0312 11 30.0312 10.7656C30.0312 10.1562 29.7969 9.65234 29.3281 9.25391C28.8711 8.84375 28.3379 8.63867 27.7285 8.63867C26.9551 8.63867 26.293 9.06641 25.7422 9.92188L19.2559 20.1875L16.4609 16.8652C16.2031 16.5723 15.9336 16.3555 15.6523 16.2148C15.3828 16.0625 15.0723 15.9863 14.7207 15.9863C14.1113 15.9863 13.584 16.2031 13.1387 16.6367C12.6934 17.0703 12.4707 17.5977 12.4707 18.2188C12.4707 18.5117 12.5176 18.7871 12.6113 19.0449C12.7168 19.291 12.8867 19.5547 13.1211 19.8359L17.0938 24.4941C17.3984 24.8574 17.7266 25.1387 18.0781 25.3379C18.4297 25.5254 18.8281 25.6191 19.2734 25.6191Z" fill="white"/>
</svg>
