<svg width="18" height="19" viewBox="0 0 18 19" fill="none" xmlns="http://www.w3.org/2000/svg">
<path d="M0.0214844 8.08984C0.0214844 7.09375 0.208984 6.15625 0.583984 5.27734C0.958984 4.39844 1.48047 3.62793 2.14844 2.96582C2.81641 2.29785 3.58691 1.77637 4.45996 1.40137C5.33887 1.02637 6.2793 0.838867 7.28125 0.838867C8.2832 0.838867 9.2207 1.02637 10.0938 1.40137C10.9727 1.77637 11.7461 2.29785 12.4141 2.96582C13.082 3.62793 13.6035 4.39844 13.9785 5.27734C14.3535 6.15625 14.541 7.09375 14.541 8.08984C14.541 8.83984 14.4297 9.55469 14.207 10.2344C13.9902 10.9141 13.6855 11.5381 13.293 12.1064L17.0811 15.9121C17.2217 16.0586 17.3271 16.2197 17.3975 16.3955C17.4736 16.5771 17.5117 16.7705 17.5117 16.9756C17.5117 17.2568 17.4473 17.5117 17.3184 17.7402C17.1895 17.9688 17.0137 18.1475 16.791 18.2764C16.5684 18.4111 16.3105 18.4785 16.0176 18.4785C15.8184 18.4785 15.625 18.4434 15.4375 18.373C15.25 18.3027 15.083 18.1943 14.9365 18.0479L11.1133 14.2246C10.5625 14.5762 9.96191 14.8545 9.31152 15.0596C8.66699 15.2588 7.99023 15.3584 7.28125 15.3584C6.2793 15.3584 5.33887 15.1709 4.45996 14.7959C3.58691 14.4209 2.81641 13.8994 2.14844 13.2314C1.48047 12.5635 0.958984 11.79 0.583984 10.9111C0.208984 10.0322 0.0214844 9.0918 0.0214844 8.08984ZM2.0957 8.08984C2.0957 8.81055 2.22754 9.48438 2.49121 10.1113C2.76074 10.7383 3.13281 11.2891 3.60742 11.7637C4.08789 12.2383 4.6416 12.6104 5.26855 12.8799C5.89551 13.1494 6.56641 13.2842 7.28125 13.2842C7.99609 13.2842 8.66699 13.1494 9.29395 12.8799C9.9209 12.6104 10.4717 12.2383 10.9463 11.7637C11.4209 11.2891 11.793 10.7383 12.0625 10.1113C12.332 9.48438 12.4668 8.81055 12.4668 8.08984C12.4668 7.375 12.332 6.70703 12.0625 6.08594C11.793 5.45898 11.4209 4.9082 10.9463 4.43359C10.4717 3.95312 9.9209 3.57813 9.29395 3.30859C8.66699 3.03906 7.99609 2.9043 7.28125 2.9043C6.56641 2.9043 5.89551 3.03906 5.26855 3.30859C4.6416 3.57813 4.08789 3.95312 3.60742 4.43359C3.13281 4.9082 2.76074 5.45898 2.49121 6.08594C2.22754 6.70703 2.0957 7.375 2.0957 8.08984Z" fill="white"/>
</svg>
