<svg width="11" height="12" viewBox="0 0 11 12" fill="none" xmlns="http://www.w3.org/2000/svg">
<path d="M1.70312 11.6543C1.32031 11.6543 1.02148 11.5664 0.806641 11.3906C0.591797 11.2148 0.484375 10.9707 0.484375 10.6582C0.484375 10.2871 0.601562 9.89648 0.835938 9.48633C1.07422 9.07617 1.41211 8.69336 1.84961 8.33789C2.29102 7.97852 2.82031 7.6875 3.4375 7.46484C4.05469 7.24219 4.74219 7.13086 5.5 7.13086C6.26172 7.13086 6.94922 7.24219 7.5625 7.46484C8.17578 7.6875 8.70312 7.97852 9.14453 8.33789C9.58594 8.69336 9.92383 9.07617 10.1582 9.48633C10.3926 9.89648 10.5098 10.2871 10.5098 10.6582C10.5098 10.9707 10.4023 11.2148 10.1875 11.3906C9.97656 11.5664 9.67969 11.6543 9.29688 11.6543H1.70312ZM5.5 6.12305C5.04688 6.12305 4.63672 6.00586 4.26953 5.77148C3.90625 5.5332 3.61523 5.21484 3.39648 4.81641C3.18164 4.41406 3.07422 3.96875 3.07422 3.48047C3.07422 3.00781 3.18359 2.57422 3.40234 2.17969C3.62109 1.78125 3.91406 1.46484 4.28125 1.23047C4.64844 0.996094 5.05469 0.878906 5.5 0.878906C5.94531 0.878906 6.35156 0.996094 6.71875 1.23047C7.08984 1.46484 7.38281 1.7793 7.59766 2.17383C7.81641 2.56836 7.92578 3.00195 7.92578 3.47461C7.92578 3.9668 7.81641 4.41406 7.59766 4.81641C7.38281 5.21484 7.0918 5.5332 6.72461 5.77148C6.35742 6.00586 5.94922 6.12305 5.5 6.12305Z" fill="white"/>
</svg>
