<svg width="40" height="40" viewBox="0 0 40 40" fill="none" xmlns="http://www.w3.org/2000/svg">
<rect width="40" height="40" rx="20" fill="#0A84FF"/>
<path d="M14.2069 17.8133L19.5008 12.6996C19.6452 12.5607 19.8358 12.4944 20.0244 12.5006L20.0475 12.5C20.1769 12.5 20.3038 12.5343 20.4144 12.5992C20.525 12.6642 20.6149 12.7572 20.6745 12.8682L25.7932 17.8133C25.9256 17.9412 26 18.1146 26 18.2955C26 18.4764 25.9256 18.6498 25.7932 18.7777C25.6608 18.9056 25.4812 18.9775 25.294 18.9775C25.1067 18.9775 24.9271 18.9056 24.7947 18.7777L20.7534 14.874V26.8183C20.7533 26.9991 20.679 27.1725 20.5466 27.3003C20.4142 27.4282 20.2347 27.5 20.0475 27.5C19.8603 27.5 19.6808 27.4282 19.5484 27.3003C19.4161 27.1725 19.3417 26.9991 19.3417 26.8183V14.781L15.2053 18.7777C15.083 18.8959 14.92 18.9665 14.7473 18.9762C14.5746 18.986 14.4042 18.9341 14.2685 18.8304L14.2069 18.7777C14.1413 18.7144 14.0893 18.6392 14.0538 18.5565C14.0183 18.4737 14 18.3851 14 18.2955C14 18.2059 14.0183 18.1172 14.0538 18.0345C14.0893 17.9518 14.1413 17.8766 14.2069 17.8133Z" fill="white"/>
</svg>
