<svg width="14" height="15" viewBox="0 0 14 15" fill="none" xmlns="http://www.w3.org/2000/svg">
<path d="M3.15625 7.0625V2.43359C3.15625 1.73438 3.3457 1.19336 3.72461 0.810547C4.10352 0.427734 4.64258 0.236328 5.3418 0.236328H7.9668V5.08203C7.9668 5.77344 8.31055 6.11914 8.99805 6.11914H13.832V11.1172C13.832 11.8164 13.6406 12.3555 13.2578 12.7344C12.8789 13.1172 12.3418 13.3086 11.6465 13.3086H6.56055C6.76758 12.9922 6.92773 12.6484 7.04102 12.2773C7.1582 11.9062 7.2168 11.5195 7.2168 11.1172C7.2168 10.5664 7.11133 10.0469 6.90039 9.55859C6.68945 9.07031 6.39648 8.64062 6.02148 8.26953C5.64648 7.89453 5.21289 7.59961 4.7207 7.38477C4.23242 7.16992 3.71094 7.0625 3.15625 7.0625ZM9.38477 5.08203C9.12695 5.08203 8.99805 4.95508 8.99805 4.70117V0.283203C9.16602 0.294922 9.33203 0.361328 9.49609 0.482422C9.66016 0.603516 9.83203 0.751953 10.0117 0.927734L13.1172 4.05078C13.3047 4.24219 13.459 4.42188 13.5801 4.58984C13.7051 4.75391 13.7734 4.91797 13.7852 5.08203H9.38477ZM2.91016 14.2871C2.78906 14.2871 2.68359 14.252 2.59375 14.1816C2.50781 14.1113 2.45117 14.0195 2.42383 13.9062L2.30078 13.3848C2.27734 13.377 2.25391 13.3672 2.23047 13.3555C2.21094 13.3477 2.18945 13.3379 2.16602 13.3262L1.71484 13.6133C1.61328 13.6758 1.50586 13.7012 1.39258 13.6895C1.27539 13.6777 1.17383 13.627 1.08789 13.5371L0.742188 13.1914C0.65625 13.1055 0.609375 13.0059 0.601562 12.8926C0.59375 12.7793 0.621094 12.6699 0.683594 12.5645L0.958984 12.1191C0.947266 12.0957 0.9375 12.0742 0.929688 12.0547C0.921875 12.0391 0.914062 12.0195 0.90625 11.9961L0.384766 11.8672C0.267578 11.8398 0.173828 11.7812 0.103516 11.6914C0.0332031 11.6055 -0.00195312 11.502 -0.00195312 11.3809V10.8887C-0.00195312 10.7715 0.0332031 10.668 0.103516 10.5781C0.169922 10.4883 0.263672 10.4297 0.384766 10.4023L0.894531 10.2793C0.902344 10.2598 0.912109 10.2402 0.923828 10.2207C0.931641 10.1973 0.941406 10.1758 0.953125 10.1562L0.671875 9.69336C0.605469 9.5918 0.578125 9.48438 0.589844 9.37109C0.601562 9.25391 0.650391 9.1543 0.736328 9.07227L1.09961 8.72656C1.17773 8.64453 1.27344 8.59766 1.38672 8.58594C1.49609 8.57031 1.59766 8.5918 1.69141 8.65039L2.16016 8.93164C2.17969 8.91992 2.20117 8.91016 2.22461 8.90234C2.24805 8.89453 2.27344 8.88477 2.30078 8.87305L2.42383 8.35742C2.45117 8.24023 2.50781 8.14648 2.59375 8.07617C2.68359 8.00586 2.78906 7.9707 2.91016 7.9707H3.4082C3.52539 7.9707 3.62891 8.00586 3.71875 8.07617C3.80859 8.14648 3.86719 8.24023 3.89453 8.35742L4.02344 8.88477C4.04297 8.89258 4.06445 8.90039 4.08789 8.9082C4.11133 8.91211 4.13281 8.91992 4.15234 8.93164L4.62109 8.65039C4.72266 8.58789 4.82617 8.56641 4.93164 8.58594C5.04102 8.60156 5.13477 8.64844 5.21289 8.72656L5.57617 9.07227C5.66211 9.1543 5.71094 9.25391 5.72266 9.37109C5.73438 9.48438 5.70898 9.5918 5.64648 9.69336L5.35938 10.1562C5.37109 10.1758 5.38086 10.1953 5.38867 10.2148C5.40039 10.2344 5.41211 10.2559 5.42383 10.2793L5.93359 10.4023C6.05078 10.4297 6.14453 10.4883 6.21484 10.5781C6.28516 10.6641 6.32031 10.7676 6.32031 10.8887V11.3809C6.32031 11.502 6.28516 11.6055 6.21484 11.6914C6.14453 11.7812 6.05078 11.8398 5.93359 11.8672L5.41211 11.9961C5.4043 12.0195 5.39453 12.0391 5.38281 12.0547C5.375 12.0742 5.36523 12.0957 5.35352 12.1191L5.62891 12.5645C5.69531 12.6699 5.72266 12.7793 5.71094 12.8926C5.70312 13.0059 5.65625 13.1055 5.57031 13.1914L5.23047 13.5371C5.13672 13.627 5.0332 13.6777 4.91992 13.6895C4.80664 13.7012 4.69922 13.6758 4.59766 13.6133L4.15234 13.3262C4.12109 13.3418 4.07422 13.3613 4.01172 13.3848L3.89453 13.9062C3.86719 14.0195 3.80859 14.1113 3.71875 14.1816C3.62891 14.252 3.52539 14.2871 3.4082 14.2871H2.91016ZM3.15625 12.0488C3.41016 12.0488 3.62695 11.959 3.80664 11.7793C3.99023 11.5996 4.08203 11.3828 4.08203 11.1289C4.08203 10.875 3.99023 10.6582 3.80664 10.4785C3.62695 10.2949 3.41016 10.2031 3.15625 10.2031C2.90234 10.2031 2.68555 10.2949 2.50586 10.4785C2.32617 10.6582 2.23633 10.875 2.23633 11.1289C2.23633 11.3828 2.32617 11.5996 2.50586 11.7793C2.68555 11.959 2.90234 12.0488 3.15625 12.0488Z" fill="white"/>
</svg>
