<svg width="26" height="22" viewBox="0 0 26 22" fill="none" xmlns="http://www.w3.org/2000/svg">
<path opacity="0.6" d="M15.6543 15.168H20.459C21.4681 15.168 22.2233 14.9401 22.7246 14.4844C23.2324 14.0221 23.4863 13.4329 23.4863 12.7168C23.4863 11.903 23.2227 11.2389 22.6953 10.7246C22.1745 10.2103 21.4681 9.86849 20.5762 9.69922C20.4525 9.67969 20.3971 9.60156 20.4102 9.46484C20.4362 9.23047 20.4557 8.97982 20.4688 8.71289C20.4818 8.43945 20.4785 8.17578 20.459 7.92188C20.4134 6.96484 20.153 6.08594 19.6777 5.28516C19.209 4.48438 18.5742 3.83984 17.7734 3.35156C16.9792 2.86328 16.0677 2.61914 15.0391 2.61914C14.2318 2.61914 13.5221 2.75586 12.9102 3.0293C12.3047 3.29622 11.7839 3.65755 11.3477 4.11328C10.9115 4.56901 10.5339 5.08008 10.2148 5.64648C10.1628 5.74414 10.0781 5.77669 9.96094 5.74414C9.26432 5.54232 8.59701 5.51628 7.95898 5.66602C7.32096 5.81576 6.80013 6.16081 6.39648 6.70117C5.99935 7.24154 5.8138 8 5.83984 8.97656C5.83984 9.11979 5.77474 9.19141 5.64453 9.19141C4.64193 9.19141 3.85742 9.48112 3.29102 10.0605C2.72461 10.64 2.44141 11.3887 2.44141 12.3066C2.44141 12.834 2.56836 13.3158 2.82227 13.752C3.07617 14.1816 3.44727 14.5267 3.93555 14.7871C4.42383 15.041 5.02279 15.168 5.73242 15.168H10.2539V17.0918H5.74219C4.66146 17.0918 3.72721 16.877 2.93945 16.4473C2.1582 16.0176 1.55599 15.4447 1.13281 14.7285C0.709635 14.0124 0.498047 13.2181 0.498047 12.3457C0.498047 11.5645 0.644531 10.8516 0.9375 10.207C1.23047 9.55599 1.64714 9.01562 2.1875 8.58594C2.72786 8.15625 3.36914 7.87956 4.11133 7.75586C4.13737 7.06576 4.3099 6.44727 4.62891 5.90039C4.94792 5.35352 5.35807 4.90104 5.85938 4.54297C6.36719 4.17839 6.92057 3.93099 7.51953 3.80078C8.11849 3.67057 8.70443 3.67708 9.27734 3.82031C9.6875 3.23438 10.1758 2.70703 10.7422 2.23828C11.3086 1.76302 11.9499 1.38867 12.666 1.11523C13.3887 0.841797 14.1862 0.705078 15.0586 0.705078C16.0807 0.705078 17.0312 0.89388 17.9102 1.27148C18.7891 1.64258 19.5573 2.16992 20.2148 2.85352C20.8789 3.5306 21.3932 4.33138 21.7578 5.25586C22.1289 6.18034 22.3145 7.19596 22.3145 8.30273C23.2845 8.68685 24.0462 9.27604 24.5996 10.0703C25.153 10.8581 25.4297 11.7695 25.4297 12.8047C25.4297 13.625 25.2311 14.3574 24.834 15.002C24.4368 15.6465 23.8704 16.1576 23.1348 16.5352C22.3991 16.9062 21.5234 17.0918 20.5078 17.0918H15.6543V15.168ZM12.959 21.9844C12.7051 21.9844 12.4902 21.8965 12.3145 21.7207C12.1387 21.5449 12.0508 21.3398 12.0508 21.1055V11.7988L12.1387 10.3438L11.6113 10.9688L10.2051 12.4531C10.0488 12.6354 9.84701 12.7266 9.59961 12.7266C9.37826 12.7266 9.18945 12.6549 9.0332 12.5117C8.87695 12.362 8.79883 12.1732 8.79883 11.9453C8.79883 11.7305 8.88346 11.5384 9.05273 11.3691L12.2656 8.27344C12.3828 8.15625 12.4967 8.07812 12.6074 8.03906C12.7181 7.99349 12.8353 7.9707 12.959 7.9707C13.0762 7.9707 13.1868 7.99349 13.291 8.03906C13.4017 8.07812 13.5156 8.15625 13.6328 8.27344L16.8457 11.3691C17.0215 11.5384 17.1094 11.7305 17.1094 11.9453C17.1094 12.1732 17.028 12.362 16.8652 12.5117C16.709 12.6549 16.5202 12.7266 16.2988 12.7266C16.0514 12.7266 15.8464 12.6354 15.6836 12.4531L14.2969 10.9688L13.7695 10.3438L13.8574 11.7988V21.1055C13.8574 21.3398 13.7695 21.5449 13.5938 21.7207C13.418 21.8965 13.2064 21.9844 12.959 21.9844Z" fill="white"/>
</svg>
