<svg width="13" height="12" viewBox="0 0 13 12" fill="none" xmlns="http://www.w3.org/2000/svg">
<path d="M11.3633 1.41211C11.6719 1.7168 11.8809 2.08398 11.9902 2.51367C12.1035 2.93945 12.1602 3.47266 12.1602 4.11328V8.41992C12.1602 9.06445 12.1035 9.59961 11.9902 10.0254C11.8809 10.4512 11.6719 10.8184 11.3633 11.127C11.0508 11.4355 10.6797 11.6465 10.25 11.7598C9.82422 11.873 9.29102 11.9297 8.65039 11.9297H4.34375C3.70703 11.9297 3.17383 11.873 2.74414 11.7598C2.31445 11.6465 1.94336 11.4355 1.63086 11.127C1.32617 10.8223 1.11719 10.457 1.00391 10.0312C0.890625 9.60156 0.833984 9.06445 0.833984 8.41992V4.11328C0.833984 3.47266 0.890625 2.93945 1.00391 2.51367C1.11719 2.08789 1.32617 1.7207 1.63086 1.41211C1.93945 1.10352 2.30859 0.892578 2.73828 0.779297C3.17188 0.666016 3.70508 0.609375 4.33789 0.609375H8.65039C9.29102 0.609375 9.82422 0.666016 10.25 0.779297C10.6797 0.892578 11.0508 1.10352 11.3633 1.41211ZM3.58789 6.73242H5.67969C5.82422 6.73242 5.89648 6.80664 5.89648 6.95508V9.03516C5.89648 9.24219 5.96484 9.40039 6.10156 9.50977C6.23828 9.61523 6.39062 9.65039 6.55859 9.61523C6.73047 9.57617 6.86914 9.44141 6.97461 9.21094L9.20703 4.32422C9.29688 4.11719 9.30469 3.92969 9.23047 3.76172C9.15625 3.58984 9.0332 3.46875 8.86133 3.39844C8.68945 3.32422 8.50586 3.33203 8.31055 3.42188L3.41797 5.66016C3.1875 5.76562 3.05273 5.9043 3.01367 6.07617C2.97461 6.24414 3.00977 6.39648 3.11914 6.5332C3.22852 6.66602 3.38477 6.73242 3.58789 6.73242Z" fill="white"/>
</svg>
