<svg width="83" height="22" viewBox="0 0 83 22" fill="none" xmlns="http://www.w3.org/2000/svg">
<rect y="6" width="2" height="10" rx="1" fill="white"/>
<rect x="3" y="8" width="2" height="6" rx="1" fill="white"/>
<rect x="6" y="9" width="2" height="4" rx="1" fill="white"/>
<rect x="9" y="7" width="2" height="8" rx="1" fill="white"/>
<rect x="12" y="3" width="2" height="16" rx="1" fill="white"/>
<rect x="15" y="5" width="2" height="12" rx="1" fill="white"/>
<rect x="18" y="8" width="2" height="6" rx="1" fill="white"/>
<rect x="21" y="6" width="2" height="10" rx="1" fill="white"/>
<rect x="24" y="8" width="2" height="6" rx="1" fill="white"/>
<rect x="27" width="2" height="22" rx="1" fill="white"/>
<rect x="30" y="3" width="2" height="16" rx="1" fill="white"/>
<rect x="33" y="6" width="2" height="10" rx="1" fill="white"/>
<rect x="36" y="4" width="2" height="14" rx="1" fill="white"/>
<rect x="39" y="8" width="2" height="6" rx="1" fill="white"/>
<rect x="42" y="6" width="2" height="10" rx="1" fill="white"/>
<rect x="45" y="9" width="2" height="4" rx="1" fill="white"/>
<rect x="48" y="3" width="2" height="16" rx="1" fill="white"/>
<rect x="51" y="6" width="2" height="10" rx="1" fill="white"/>
<rect x="54" y="4" width="2" height="14" rx="1" fill="white"/>
<rect x="57" y="8" width="2" height="6" rx="1" fill="white"/>
<rect x="60" y="6" width="2" height="10" rx="1" fill="white"/>
<rect x="63" y="9" width="2" height="4" rx="1" fill="white"/>
<rect x="66" y="8" width="2" height="6" rx="1" fill="white"/>
<rect x="69" width="2" height="22" rx="1" fill="white"/>
<rect x="72" y="3" width="2" height="16" rx="1" fill="white"/>
<rect x="75" y="6" width="2" height="10" rx="1" fill="white"/>
<rect x="78" y="4" width="2" height="14" rx="1" fill="white"/>
<rect x="81" y="8" width="2" height="6" rx="1" fill="white"/>
</svg>
