<svg width="48" height="48" viewBox="0 0 48 48" fill="none" xmlns="http://www.w3.org/2000/svg">
<rect width="48" height="48" rx="24" fill="white" fill-opacity="0.1"/>
<path opacity="0.9" d="M14.8318 27.7541C14.4973 27.7541 14.2142 27.6382 13.9826 27.4066C13.7509 27.175 13.6351 26.8887 13.6351 26.5477V21.4425C13.6351 21.1079 13.7509 20.8216 13.9826 20.5836C14.2142 20.3455 14.4973 20.2265 14.8318 20.2265C15.1664 20.2265 15.4527 20.3455 15.6907 20.5836C15.9288 20.8216 16.0478 21.1079 16.0478 21.4425V26.5477C16.0478 26.8887 15.9288 27.175 15.6907 27.4066C15.4527 27.6382 15.1664 27.7541 14.8318 27.7541ZM18.4895 32.0776C18.1613 32.0776 17.8815 31.9586 17.6498 31.7205C17.4182 31.4889 17.3024 31.2058 17.3024 30.8712V17.1286C17.3024 16.7876 17.4182 16.5013 17.6498 16.2697C17.8815 16.0316 18.1613 15.9126 18.4895 15.9126C18.8304 15.9126 19.12 16.0316 19.358 16.2697C19.5961 16.5013 19.7151 16.7876 19.7151 17.1286V30.8712C19.7151 31.2058 19.5961 31.4889 19.358 31.7205C19.12 31.9586 18.8304 32.0776 18.4895 32.0776ZM22.1567 35.2141C21.8222 35.2141 21.5391 35.0951 21.3075 34.857C21.0758 34.6254 20.96 34.3423 20.96 34.0077V14.0018C20.96 13.6672 21.0758 13.3809 21.3075 13.1428C21.5391 12.9048 21.8222 12.7858 22.1567 12.7858C22.4977 12.7858 22.784 12.9048 23.0156 13.1428C23.2537 13.3809 23.3727 13.6672 23.3727 14.0018V34.0077C23.3727 34.3423 23.2537 34.6254 23.0156 34.857C22.784 35.0951 22.4977 35.2141 22.1567 35.2141ZM25.824 30.4852C25.4895 30.4852 25.2064 30.3694 24.9747 30.1378C24.7431 29.8997 24.6273 29.6134 24.6273 29.2789V18.721C24.6273 18.3864 24.7431 18.1001 24.9747 17.8621C25.2064 17.624 25.4895 17.505 25.824 17.505C26.1586 17.505 26.4449 17.624 26.6829 17.8621C26.921 18.1001 27.04 18.3864 27.04 18.721V29.2789C27.04 29.6134 26.921 29.8997 26.6829 30.1378C26.4449 30.3694 26.1586 30.4852 25.824 30.4852ZM29.4913 33.1392C29.1567 33.1392 28.8736 33.0234 28.642 32.7917C28.4104 32.5601 28.2946 32.2738 28.2946 31.9328V16.0767C28.2946 15.7357 28.4104 15.4494 28.642 15.2178C28.8736 14.9797 29.1567 14.8607 29.4913 14.8607C29.8258 14.8607 30.1122 14.9797 30.3502 15.2178C30.5883 15.4494 30.7073 15.7357 30.7073 16.0767V31.9328C30.7073 32.2738 30.5883 32.5601 30.3502 32.7917C30.1122 33.0234 29.8258 33.1392 29.4913 33.1392ZM33.1489 28.8639C32.8208 28.8639 32.5377 28.7481 32.2997 28.5165C32.068 28.2784 31.9522 27.9921 31.9522 27.6575V20.3423C31.9522 20.0077 32.068 19.7214 32.2997 19.4834C32.5377 19.2453 32.8208 19.1263 33.1489 19.1263C33.4899 19.1263 33.7762 19.2453 34.0078 19.4834C34.2459 19.7214 34.3649 20.0077 34.3649 20.3423V27.6575C34.3649 27.9921 34.2459 28.2784 34.0078 28.5165C33.7762 28.7481 33.4899 28.8639 33.1489 28.8639Z" fill="white"/>
</svg>
